<mxfile host="app.diagrams.net" modified="2023-04-15T13:26:58.381Z" agent="Mozilla/5.0 (Windows NT 10.0; Win64; x64) AppleWebKit/537.36 (KHTML, like Gecko) Chrome/111.0.0.0 Safari/537.36" etag="1u_HF2qQibIp4QRD9PQU" version="21.1.1" type="device">
  <diagram id="prtHgNgQTEPvFCAcTncT" name="Page-1">
    <mxGraphModel dx="2270" dy="737" grid="1" gridSize="10" guides="1" tooltips="1" connect="1" arrows="1" fold="1" page="1" pageScale="1" pageWidth="827" pageHeight="1169" math="0" shadow="0">
      <root>
        <mxCell id="0" />
        <mxCell id="1" parent="0" />
        <mxCell id="TzlKEkVYY75Xqb0H2JuX-1" value="" style="shape=process;whiteSpace=wrap;html=1;backgroundOutline=1;fillColor=#33FFFF;" vertex="1" parent="1">
          <mxGeometry x="50" y="150" width="150" height="80" as="geometry" />
        </mxCell>
        <mxCell id="TzlKEkVYY75Xqb0H2JuX-7" value="" style="endArrow=none;html=1;rounded=0;entryX=0.047;entryY=0.002;entryDx=0;entryDy=0;entryPerimeter=0;exitX=0.047;exitY=1;exitDx=0;exitDy=0;exitPerimeter=0;" edge="1" parent="1" source="TzlKEkVYY75Xqb0H2JuX-1" target="TzlKEkVYY75Xqb0H2JuX-1">
          <mxGeometry width="50" height="50" relative="1" as="geometry">
            <mxPoint x="260" y="140" as="sourcePoint" />
            <mxPoint x="310" y="90" as="targetPoint" />
          </mxGeometry>
        </mxCell>
        <mxCell id="TzlKEkVYY75Xqb0H2JuX-8" value="" style="endArrow=none;html=1;rounded=0;entryX=0.949;entryY=0.002;entryDx=0;entryDy=0;entryPerimeter=0;exitX=0.949;exitY=1;exitDx=0;exitDy=0;exitPerimeter=0;" edge="1" parent="1" source="TzlKEkVYY75Xqb0H2JuX-1" target="TzlKEkVYY75Xqb0H2JuX-1">
          <mxGeometry width="50" height="50" relative="1" as="geometry">
            <mxPoint x="67" y="240" as="sourcePoint" />
            <mxPoint x="67" y="160" as="targetPoint" />
          </mxGeometry>
        </mxCell>
        <mxCell id="TzlKEkVYY75Xqb0H2JuX-35" value="ИС &quot;Предоставление и выполнение бытовых услуг&quot;" style="text;html=1;strokeColor=none;fillColor=none;align=center;verticalAlign=middle;whiteSpace=wrap;rounded=0;" vertex="1" parent="1">
          <mxGeometry x="95" y="177.5" width="60" height="25" as="geometry" />
        </mxCell>
        <mxCell id="TzlKEkVYY75Xqb0H2JuX-59" value="" style="rounded=0;whiteSpace=wrap;html=1;fillColor=#33FFFF;" vertex="1" parent="1">
          <mxGeometry x="270" y="40" width="130" height="70" as="geometry" />
        </mxCell>
        <mxCell id="TzlKEkVYY75Xqb0H2JuX-60" value="" style="rounded=0;whiteSpace=wrap;html=1;fillColor=#33FFFF;" vertex="1" parent="1">
          <mxGeometry x="450" y="40" width="130" height="70" as="geometry" />
        </mxCell>
        <mxCell id="TzlKEkVYY75Xqb0H2JuX-61" value="" style="rounded=0;whiteSpace=wrap;html=1;fillColor=#33FFFF;" vertex="1" parent="1">
          <mxGeometry x="640" y="40" width="130" height="70" as="geometry" />
        </mxCell>
        <mxCell id="TzlKEkVYY75Xqb0H2JuX-62" value="" style="shape=process;whiteSpace=wrap;html=1;backgroundOutline=1;fillColor=#FFFFCC;" vertex="1" parent="1">
          <mxGeometry x="-10" y="280" width="140" height="80" as="geometry" />
        </mxCell>
        <mxCell id="TzlKEkVYY75Xqb0H2JuX-63" value="Прием звонков и объявлений" style="text;html=1;strokeColor=none;fillColor=none;align=center;verticalAlign=middle;whiteSpace=wrap;rounded=0;" vertex="1" parent="1">
          <mxGeometry x="30" y="305" width="60" height="30" as="geometry" />
        </mxCell>
        <mxCell id="TzlKEkVYY75Xqb0H2JuX-64" value="" style="shape=process;whiteSpace=wrap;html=1;backgroundOutline=1;fillColor=#FFFFCC;" vertex="1" parent="1">
          <mxGeometry x="210" y="280" width="140" height="80" as="geometry" />
        </mxCell>
        <mxCell id="TzlKEkVYY75Xqb0H2JuX-65" value="Обработка объявлений в базе" style="text;html=1;strokeColor=none;fillColor=none;align=center;verticalAlign=middle;whiteSpace=wrap;rounded=0;" vertex="1" parent="1">
          <mxGeometry x="250" y="305" width="60" height="30" as="geometry" />
        </mxCell>
        <mxCell id="TzlKEkVYY75Xqb0H2JuX-66" value="" style="shape=process;whiteSpace=wrap;html=1;backgroundOutline=1;fillColor=#FFFFCC;" vertex="1" parent="1">
          <mxGeometry x="430" y="280" width="140" height="80" as="geometry" />
        </mxCell>
        <mxCell id="TzlKEkVYY75Xqb0H2JuX-67" value="Оборот договоров клиентов" style="text;html=1;strokeColor=none;fillColor=none;align=center;verticalAlign=middle;whiteSpace=wrap;rounded=0;" vertex="1" parent="1">
          <mxGeometry x="470" y="305" width="60" height="30" as="geometry" />
        </mxCell>
        <mxCell id="TzlKEkVYY75Xqb0H2JuX-68" value="" style="shape=process;whiteSpace=wrap;html=1;backgroundOutline=1;fillColor=#FFFFCC;" vertex="1" parent="1">
          <mxGeometry x="640" y="280" width="140" height="80" as="geometry" />
        </mxCell>
        <mxCell id="TzlKEkVYY75Xqb0H2JuX-69" value="Справочники" style="text;html=1;strokeColor=none;fillColor=none;align=center;verticalAlign=middle;whiteSpace=wrap;rounded=0;" vertex="1" parent="1">
          <mxGeometry x="680" y="305" width="60" height="30" as="geometry" />
        </mxCell>
        <mxCell id="TzlKEkVYY75Xqb0H2JuX-70" value="Windows 11 Pro" style="text;html=1;strokeColor=none;fillColor=none;align=center;verticalAlign=middle;whiteSpace=wrap;rounded=0;" vertex="1" parent="1">
          <mxGeometry x="305" y="60" width="60" height="30" as="geometry" />
        </mxCell>
        <mxCell id="TzlKEkVYY75Xqb0H2JuX-71" value="Postgre SQL DB" style="text;html=1;strokeColor=none;fillColor=none;align=center;verticalAlign=middle;whiteSpace=wrap;rounded=0;" vertex="1" parent="1">
          <mxGeometry x="485" y="60" width="60" height="30" as="geometry" />
        </mxCell>
        <mxCell id="TzlKEkVYY75Xqb0H2JuX-72" value="Visual Studio .NET 7" style="text;html=1;strokeColor=none;fillColor=none;align=center;verticalAlign=middle;whiteSpace=wrap;rounded=0;" vertex="1" parent="1">
          <mxGeometry x="675" y="60" width="60" height="30" as="geometry" />
        </mxCell>
        <mxCell id="TzlKEkVYY75Xqb0H2JuX-73" value="" style="rounded=0;whiteSpace=wrap;html=1;fillColor=#99FF99;" vertex="1" parent="1">
          <mxGeometry x="90" y="390" width="110" height="60" as="geometry" />
        </mxCell>
        <mxCell id="TzlKEkVYY75Xqb0H2JuX-74" value="" style="rounded=0;whiteSpace=wrap;html=1;fillColor=#99FF99;" vertex="1" parent="1">
          <mxGeometry x="100" y="395" width="90" height="50" as="geometry" />
        </mxCell>
        <mxCell id="TzlKEkVYY75Xqb0H2JuX-75" value="Прием звонков" style="text;html=1;strokeColor=none;fillColor=none;align=center;verticalAlign=middle;whiteSpace=wrap;rounded=0;" vertex="1" parent="1">
          <mxGeometry x="115" y="405" width="60" height="30" as="geometry" />
        </mxCell>
        <mxCell id="TzlKEkVYY75Xqb0H2JuX-76" value="" style="rounded=0;whiteSpace=wrap;html=1;fillColor=#99FF99;" vertex="1" parent="1">
          <mxGeometry x="90" y="480" width="110" height="60" as="geometry" />
        </mxCell>
        <mxCell id="TzlKEkVYY75Xqb0H2JuX-77" value="" style="rounded=0;whiteSpace=wrap;html=1;fillColor=#99FF99;" vertex="1" parent="1">
          <mxGeometry x="100" y="485" width="90" height="50" as="geometry" />
        </mxCell>
        <mxCell id="TzlKEkVYY75Xqb0H2JuX-78" value="Регистрация объявлений" style="text;html=1;strokeColor=none;fillColor=none;align=center;verticalAlign=middle;whiteSpace=wrap;rounded=0;" vertex="1" parent="1">
          <mxGeometry x="115" y="495" width="60" height="30" as="geometry" />
        </mxCell>
        <mxCell id="TzlKEkVYY75Xqb0H2JuX-79" value="" style="rounded=0;whiteSpace=wrap;html=1;fillColor=#99FF99;" vertex="1" parent="1">
          <mxGeometry x="740" y="385" width="110" height="60" as="geometry" />
        </mxCell>
        <mxCell id="TzlKEkVYY75Xqb0H2JuX-80" value="" style="rounded=0;whiteSpace=wrap;html=1;fillColor=#99FF99;" vertex="1" parent="1">
          <mxGeometry x="750" y="390" width="90" height="50" as="geometry" />
        </mxCell>
        <mxCell id="TzlKEkVYY75Xqb0H2JuX-81" value="Справочники сотрудников агенства" style="text;html=1;strokeColor=none;fillColor=none;align=center;verticalAlign=middle;whiteSpace=wrap;rounded=0;" vertex="1" parent="1">
          <mxGeometry x="765" y="400" width="55" height="30" as="geometry" />
        </mxCell>
        <mxCell id="TzlKEkVYY75Xqb0H2JuX-82" value="" style="rounded=0;whiteSpace=wrap;html=1;fillColor=#99FF99;" vertex="1" parent="1">
          <mxGeometry x="740" y="475" width="110" height="60" as="geometry" />
        </mxCell>
        <mxCell id="TzlKEkVYY75Xqb0H2JuX-83" value="" style="rounded=0;whiteSpace=wrap;html=1;fillColor=#99FF99;" vertex="1" parent="1">
          <mxGeometry x="750" y="480" width="90" height="50" as="geometry" />
        </mxCell>
        <mxCell id="TzlKEkVYY75Xqb0H2JuX-84" value="Справочники мастеров" style="text;html=1;strokeColor=none;fillColor=none;align=center;verticalAlign=middle;whiteSpace=wrap;rounded=0;" vertex="1" parent="1">
          <mxGeometry x="765" y="490" width="60" height="30" as="geometry" />
        </mxCell>
        <mxCell id="TzlKEkVYY75Xqb0H2JuX-85" value="" style="rounded=0;whiteSpace=wrap;html=1;fillColor=#99FF99;" vertex="1" parent="1">
          <mxGeometry x="310" y="390" width="110" height="60" as="geometry" />
        </mxCell>
        <mxCell id="TzlKEkVYY75Xqb0H2JuX-86" value="" style="rounded=0;whiteSpace=wrap;html=1;fillColor=#99FF99;" vertex="1" parent="1">
          <mxGeometry x="320" y="395" width="90" height="50" as="geometry" />
        </mxCell>
        <mxCell id="TzlKEkVYY75Xqb0H2JuX-87" value="Внесение новых объявлений в БД" style="text;html=1;strokeColor=none;fillColor=none;align=center;verticalAlign=middle;whiteSpace=wrap;rounded=0;" vertex="1" parent="1">
          <mxGeometry x="320" y="410" width="90" height="20" as="geometry" />
        </mxCell>
        <mxCell id="TzlKEkVYY75Xqb0H2JuX-88" value="" style="rounded=0;whiteSpace=wrap;html=1;fillColor=#99FF99;" vertex="1" parent="1">
          <mxGeometry x="310" y="480" width="110" height="60" as="geometry" />
        </mxCell>
        <mxCell id="TzlKEkVYY75Xqb0H2JuX-89" value="" style="rounded=0;whiteSpace=wrap;html=1;fillColor=#99FF99;" vertex="1" parent="1">
          <mxGeometry x="320" y="485" width="90" height="50" as="geometry" />
        </mxCell>
        <mxCell id="TzlKEkVYY75Xqb0H2JuX-90" value="Обновление и актуализация БД" style="text;html=1;strokeColor=none;fillColor=none;align=center;verticalAlign=middle;whiteSpace=wrap;rounded=0;" vertex="1" parent="1">
          <mxGeometry x="335" y="495" width="60" height="30" as="geometry" />
        </mxCell>
        <mxCell id="TzlKEkVYY75Xqb0H2JuX-91" value="" style="rounded=0;whiteSpace=wrap;html=1;fillColor=#99FF99;" vertex="1" parent="1">
          <mxGeometry x="530" y="390" width="110" height="60" as="geometry" />
        </mxCell>
        <mxCell id="TzlKEkVYY75Xqb0H2JuX-92" value="" style="rounded=0;whiteSpace=wrap;html=1;fillColor=#99FF99;" vertex="1" parent="1">
          <mxGeometry x="540" y="395" width="90" height="50" as="geometry" />
        </mxCell>
        <mxCell id="TzlKEkVYY75Xqb0H2JuX-93" value="Данные оборота договоров" style="text;html=1;strokeColor=none;fillColor=none;align=center;verticalAlign=middle;whiteSpace=wrap;rounded=0;" vertex="1" parent="1">
          <mxGeometry x="555" y="405" width="55" height="30" as="geometry" />
        </mxCell>
        <mxCell id="TzlKEkVYY75Xqb0H2JuX-95" value="" style="endArrow=none;html=1;rounded=0;exitX=1;exitY=0.5;exitDx=0;exitDy=0;" edge="1" parent="1" source="TzlKEkVYY75Xqb0H2JuX-1">
          <mxGeometry width="50" height="50" relative="1" as="geometry">
            <mxPoint x="340" y="370" as="sourcePoint" />
            <mxPoint x="710" y="190" as="targetPoint" />
          </mxGeometry>
        </mxCell>
        <mxCell id="TzlKEkVYY75Xqb0H2JuX-96" value="" style="endArrow=none;html=1;rounded=0;entryX=0.5;entryY=1;entryDx=0;entryDy=0;" edge="1" parent="1" target="TzlKEkVYY75Xqb0H2JuX-59">
          <mxGeometry width="50" height="50" relative="1" as="geometry">
            <mxPoint x="335" y="190" as="sourcePoint" />
            <mxPoint x="390" y="320" as="targetPoint" />
          </mxGeometry>
        </mxCell>
        <mxCell id="TzlKEkVYY75Xqb0H2JuX-97" value="" style="endArrow=none;html=1;rounded=0;entryX=0.5;entryY=1;entryDx=0;entryDy=0;" edge="1" parent="1" target="TzlKEkVYY75Xqb0H2JuX-60">
          <mxGeometry width="50" height="50" relative="1" as="geometry">
            <mxPoint x="515" y="190" as="sourcePoint" />
            <mxPoint x="345" y="120" as="targetPoint" />
          </mxGeometry>
        </mxCell>
        <mxCell id="TzlKEkVYY75Xqb0H2JuX-98" value="" style="endArrow=none;html=1;rounded=0;entryX=0.5;entryY=1;entryDx=0;entryDy=0;" edge="1" parent="1" target="TzlKEkVYY75Xqb0H2JuX-61">
          <mxGeometry width="50" height="50" relative="1" as="geometry">
            <mxPoint x="705" y="190" as="sourcePoint" />
            <mxPoint x="525" y="120" as="targetPoint" />
          </mxGeometry>
        </mxCell>
        <mxCell id="TzlKEkVYY75Xqb0H2JuX-99" value="" style="endArrow=none;html=1;rounded=0;entryX=0.5;entryY=1;entryDx=0;entryDy=0;" edge="1" parent="1" target="TzlKEkVYY75Xqb0H2JuX-62">
          <mxGeometry width="50" height="50" relative="1" as="geometry">
            <mxPoint x="60" y="510" as="sourcePoint" />
            <mxPoint x="390" y="320" as="targetPoint" />
          </mxGeometry>
        </mxCell>
        <mxCell id="TzlKEkVYY75Xqb0H2JuX-100" value="" style="endArrow=none;html=1;rounded=0;entryX=0.5;entryY=1;entryDx=0;entryDy=0;" edge="1" parent="1" target="TzlKEkVYY75Xqb0H2JuX-64">
          <mxGeometry width="50" height="50" relative="1" as="geometry">
            <mxPoint x="280" y="520" as="sourcePoint" />
            <mxPoint x="390" y="320" as="targetPoint" />
          </mxGeometry>
        </mxCell>
        <mxCell id="TzlKEkVYY75Xqb0H2JuX-101" value="" style="endArrow=none;html=1;rounded=0;entryX=0.5;entryY=1;entryDx=0;entryDy=0;" edge="1" parent="1" target="TzlKEkVYY75Xqb0H2JuX-68">
          <mxGeometry width="50" height="50" relative="1" as="geometry">
            <mxPoint x="710" y="510" as="sourcePoint" />
            <mxPoint x="290" y="370" as="targetPoint" />
          </mxGeometry>
        </mxCell>
        <mxCell id="TzlKEkVYY75Xqb0H2JuX-102" value="" style="endArrow=none;html=1;rounded=0;entryX=0.5;entryY=1;entryDx=0;entryDy=0;" edge="1" parent="1" target="TzlKEkVYY75Xqb0H2JuX-66">
          <mxGeometry width="50" height="50" relative="1" as="geometry">
            <mxPoint x="500" y="420" as="sourcePoint" />
            <mxPoint x="290" y="370" as="targetPoint" />
          </mxGeometry>
        </mxCell>
        <mxCell id="TzlKEkVYY75Xqb0H2JuX-103" value="" style="endArrow=none;html=1;rounded=0;exitX=0;exitY=0.5;exitDx=0;exitDy=0;" edge="1" parent="1" source="TzlKEkVYY75Xqb0H2JuX-73">
          <mxGeometry width="50" height="50" relative="1" as="geometry">
            <mxPoint x="340" y="370" as="sourcePoint" />
            <mxPoint x="60" y="420" as="targetPoint" />
          </mxGeometry>
        </mxCell>
        <mxCell id="TzlKEkVYY75Xqb0H2JuX-104" value="" style="endArrow=none;html=1;rounded=0;exitX=0;exitY=0.5;exitDx=0;exitDy=0;" edge="1" parent="1" source="TzlKEkVYY75Xqb0H2JuX-76">
          <mxGeometry width="50" height="50" relative="1" as="geometry">
            <mxPoint x="340" y="370" as="sourcePoint" />
            <mxPoint x="60" y="510" as="targetPoint" />
          </mxGeometry>
        </mxCell>
        <mxCell id="TzlKEkVYY75Xqb0H2JuX-105" value="" style="endArrow=none;html=1;rounded=0;exitX=0;exitY=0.5;exitDx=0;exitDy=0;" edge="1" parent="1" source="TzlKEkVYY75Xqb0H2JuX-85">
          <mxGeometry width="50" height="50" relative="1" as="geometry">
            <mxPoint x="340" y="370" as="sourcePoint" />
            <mxPoint x="280" y="420" as="targetPoint" />
          </mxGeometry>
        </mxCell>
        <mxCell id="TzlKEkVYY75Xqb0H2JuX-106" value="" style="endArrow=none;html=1;rounded=0;entryX=-0.019;entryY=0.625;entryDx=0;entryDy=0;entryPerimeter=0;" edge="1" parent="1" target="TzlKEkVYY75Xqb0H2JuX-88">
          <mxGeometry width="50" height="50" relative="1" as="geometry">
            <mxPoint x="280" y="518" as="sourcePoint" />
            <mxPoint x="390" y="320" as="targetPoint" />
          </mxGeometry>
        </mxCell>
        <mxCell id="TzlKEkVYY75Xqb0H2JuX-107" value="" style="endArrow=none;html=1;rounded=0;entryX=0;entryY=0.5;entryDx=0;entryDy=0;" edge="1" parent="1" target="TzlKEkVYY75Xqb0H2JuX-91">
          <mxGeometry width="50" height="50" relative="1" as="geometry">
            <mxPoint x="500" y="420" as="sourcePoint" />
            <mxPoint x="390" y="320" as="targetPoint" />
          </mxGeometry>
        </mxCell>
        <mxCell id="TzlKEkVYY75Xqb0H2JuX-108" value="" style="endArrow=none;html=1;rounded=0;entryX=0;entryY=0.5;entryDx=0;entryDy=0;" edge="1" parent="1" target="TzlKEkVYY75Xqb0H2JuX-79">
          <mxGeometry width="50" height="50" relative="1" as="geometry">
            <mxPoint x="710" y="415" as="sourcePoint" />
            <mxPoint x="390" y="320" as="targetPoint" />
          </mxGeometry>
        </mxCell>
        <mxCell id="TzlKEkVYY75Xqb0H2JuX-109" value="" style="endArrow=none;html=1;rounded=0;entryX=0;entryY=0.5;entryDx=0;entryDy=0;" edge="1" parent="1" target="TzlKEkVYY75Xqb0H2JuX-82">
          <mxGeometry width="50" height="50" relative="1" as="geometry">
            <mxPoint x="710" y="505" as="sourcePoint" />
            <mxPoint x="390" y="320" as="targetPoint" />
          </mxGeometry>
        </mxCell>
        <mxCell id="TzlKEkVYY75Xqb0H2JuX-110" value="" style="endArrow=classic;html=1;rounded=0;entryX=0.5;entryY=0;entryDx=0;entryDy=0;" edge="1" parent="1" target="TzlKEkVYY75Xqb0H2JuX-62">
          <mxGeometry width="50" height="50" relative="1" as="geometry">
            <mxPoint x="60" y="250" as="sourcePoint" />
            <mxPoint x="390" y="320" as="targetPoint" />
          </mxGeometry>
        </mxCell>
        <mxCell id="TzlKEkVYY75Xqb0H2JuX-111" value="" style="endArrow=classic;html=1;rounded=0;entryX=0.5;entryY=0;entryDx=0;entryDy=0;" edge="1" parent="1" target="TzlKEkVYY75Xqb0H2JuX-64">
          <mxGeometry width="50" height="50" relative="1" as="geometry">
            <mxPoint x="280" y="250" as="sourcePoint" />
            <mxPoint x="390" y="320" as="targetPoint" />
          </mxGeometry>
        </mxCell>
        <mxCell id="TzlKEkVYY75Xqb0H2JuX-112" value="" style="endArrow=classic;html=1;rounded=0;entryX=0.5;entryY=0;entryDx=0;entryDy=0;" edge="1" parent="1" target="TzlKEkVYY75Xqb0H2JuX-66">
          <mxGeometry width="50" height="50" relative="1" as="geometry">
            <mxPoint x="500" y="250" as="sourcePoint" />
            <mxPoint x="290" y="290" as="targetPoint" />
          </mxGeometry>
        </mxCell>
        <mxCell id="TzlKEkVYY75Xqb0H2JuX-113" value="" style="endArrow=classic;html=1;rounded=0;entryX=0.5;entryY=0;entryDx=0;entryDy=0;" edge="1" parent="1" target="TzlKEkVYY75Xqb0H2JuX-68">
          <mxGeometry width="50" height="50" relative="1" as="geometry">
            <mxPoint x="710" y="250" as="sourcePoint" />
            <mxPoint x="510" y="290" as="targetPoint" />
          </mxGeometry>
        </mxCell>
        <mxCell id="TzlKEkVYY75Xqb0H2JuX-114" value="" style="endArrow=none;html=1;rounded=0;entryX=0.5;entryY=1;entryDx=0;entryDy=0;" edge="1" parent="1" target="TzlKEkVYY75Xqb0H2JuX-1">
          <mxGeometry width="50" height="50" relative="1" as="geometry">
            <mxPoint x="125" y="250" as="sourcePoint" />
            <mxPoint x="390" y="320" as="targetPoint" />
          </mxGeometry>
        </mxCell>
        <mxCell id="TzlKEkVYY75Xqb0H2JuX-115" value="" style="endArrow=none;html=1;rounded=0;" edge="1" parent="1">
          <mxGeometry width="50" height="50" relative="1" as="geometry">
            <mxPoint x="60" y="250" as="sourcePoint" />
            <mxPoint x="710" y="250" as="targetPoint" />
          </mxGeometry>
        </mxCell>
      </root>
    </mxGraphModel>
  </diagram>
</mxfile>
